<svg width="34" height="34" viewBox="0 0 34 34" fill="none" xmlns="http://www.w3.org/2000/svg">
<path d="M32.5111 10.239C31.875 8.78443 31.0331 7.42889 30.0111 6.21398C28.5005 4.3644 26.6153 2.85571 24.4795 1.78723C22.3438 0.718752 20.0059 0.114689 17.6199 0.0148018C15.2339 -0.0850857 12.8538 0.321464 10.6361 1.20771C8.41859 2.09395 6.41384 3.43979 4.75388 5.15664C3.0939 6.87348 1.81634 8.92241 1.00528 11.1686C0.194217 13.4147 -0.131971 15.8072 0.0482044 18.1885C0.228392 20.5699 0.910829 22.886 2.05063 24.9845C3.19043 27.0831 4.76174 28.9165 6.66114 30.364C7.87989 31.3114 9.22658 32.0815 10.6611 32.6515C12.6724 33.4757 14.825 33.9002 16.9986 33.9015C21.4854 33.8916 25.7851 32.1031 28.9555 28.9281C32.1258 25.7531 33.9079 21.4507 33.9111 16.964C33.9144 14.6496 33.4378 12.3597 32.5111 10.239ZM16.9861 3.45146C18.9381 3.45126 20.8665 3.87789 22.6361 4.70146C22.2046 4.88793 21.7509 5.01816 21.2861 5.08898C19.7569 5.31034 18.3403 6.02031 17.2476 7.11294C16.155 8.20555 15.445 9.62223 15.2236 11.1515C15.1265 12.0091 14.7364 12.807 14.1193 13.4105C13.5021 14.014 12.6958 14.386 11.8361 14.464C10.3069 14.6854 8.89022 15.3954 7.7976 16.488C6.70499 17.5806 5.995 18.9972 5.77364 20.5265C5.69869 21.342 5.35075 22.1084 4.78614 22.7015C3.81195 20.6431 3.37433 18.3716 3.51398 16.0986C3.65363 13.8256 4.36602 11.6249 5.58485 9.7011C6.80368 7.77746 8.48936 6.19336 10.485 5.09628C12.4806 3.99919 14.7214 3.42478 16.9986 3.42646L16.9861 3.45146ZM6.64864 25.714C6.79864 25.5765 6.94864 25.4515 7.09864 25.3015C8.2107 24.2234 8.92453 22.8001 9.12364 21.264C9.20437 20.4005 9.58988 19.594 10.2111 18.989C10.809 18.3667 11.6136 17.9844 12.4736 17.914C14.0029 17.6926 15.4195 16.9826 16.5121 15.89C17.6048 14.7974 18.3148 13.3807 18.5361 11.8515C18.5903 10.9484 18.9778 10.0975 19.6236 9.46398C20.2363 8.85379 21.0485 8.48535 21.9111 8.42646C23.316 8.23318 24.6263 7.60861 25.6611 6.63898C26.8395 7.61656 27.8378 8.79259 28.6111 10.114C28.5636 10.1781 28.5091 10.2369 28.4486 10.289C27.852 10.9167 27.0484 11.3075 26.1861 11.389C24.6553 11.6065 23.2365 12.3152 22.1431 13.4085C21.0499 14.5019 20.3411 15.9206 20.1236 17.4515C20.0355 18.312 19.6526 19.1156 19.0399 19.7261C18.427 20.3367 17.622 20.7166 16.7611 20.8015C15.2274 21.0211 13.8055 21.7297 12.7065 22.8219C11.6076 23.9141 10.8903 25.3316 10.6611 26.864C10.5939 27.4749 10.384 28.0615 10.0486 28.5765C8.76613 27.815 7.6175 26.848 6.64864 25.714ZM16.9861 30.539C15.7178 30.5404 14.4554 30.3636 13.2361 30.014C13.6533 29.2365 13.9244 28.3891 14.0361 27.514C14.1238 26.6554 14.5049 25.8532 15.1151 25.243C15.7254 24.6327 16.5275 24.2516 17.3861 24.164C18.9176 23.9451 20.3371 23.2362 21.4323 22.1434C22.5273 21.0506 23.2391 19.6325 23.4611 18.1015C23.5488 17.2429 23.9299 16.4407 24.5401 15.8305C25.1504 15.2202 25.9525 14.8391 26.8111 14.7515C27.9636 14.6016 29.0621 14.1725 30.0111 13.5015C30.5381 15.4989 30.6005 17.5904 30.1936 19.6156C29.7868 21.6409 28.9213 23.5461 27.6638 25.185C26.4063 26.8237 24.7901 28.1529 22.9391 29.0701C21.0883 29.9874 19.0519 30.4685 16.9861 30.4765V30.539Z" fill="#103040"/>
</svg>
